<svg xmlns="http://www.w3.org/2000/svg" xmlns:xlink="http://www.w3.org/1999/xlink" width="150" height="100" viewBox="0 0 150 100"><defs><path id="a" d="M112.005 54.877c-.095.575-.75 5.557-3.407 10.056-.158.268-3.115 6.048-9.438 9.4-.85.45-4.863 2.624-11.403 3.88-1.053.203-7.67 1.53-15.666 1.13-1.094-.054-9.035-.29-15.064-2.223-1.027-.33-7.123-1.966-11.987-7.196-.95-1.022-4.156-4.39-5.887-10.092-.23-.763-1.584-5.32-1.547-11.204.002-.327-.11-4.537 1.055-8.49.117-.39-.635 2.297.238-.8.875-3.098 3.242-9.436 10.2-14.1.86-.575 5.576-3.572 12.846-4.627.96-.14 5.537-.82 13.845-.82 1.037 0 8.888-.018 14.645 1.257 1.69.375 7.05 1.422 11.86 5.063.564.43 4.19 3.19 6.54 7.817.512 1.007 2.75 5.265 3.442 11.86.074.71.456 4.682-.272 9.09M95.025 29.01c-4.81-3.88-10.815-4.627-11.857-4.81-6.25-1.094-12.74-.333-13.972-.218-6.98.638-10.385 2.66-10.912 2.968-6.03 3.5-8.29 7.47-8.435 7.69-.148.216-.128.326-.11.418.017.09.144.09.29.182.146.09 1.532.864 2.004 1.13 1.786 1 4.61 2.18 5.228 2.422 4.355 1.694 5.993 2.514 6.96 3.006 4.555 2.315 6.707 5.234 7.304 5.92.967 1.11 3.115 4.5 3.28 4.72.165.217.37.14.51-.092 2.24-3.734 4.072-5.746 4.336-6.066 2.476-3.006 7.16-5.096 7.577-5.283 1.75-.783 5.84-2.372 6.45-2.624 4.863-2.003 6.59-3.497 6.576-3.534-1.374-2.792-4.757-5.45-5.23-5.83m8.434 15.156c-.073-.71-.364-.71-.364-.71s-.11.108-.292.2c-.182.09-1.65.87-2.003 1.037-1.383.656-6.113 1.98-6.63 2.132-5.885 1.75-7.908 2.938-8.618 3.352-4.28 2.496-5.95 5.103-6.358 5.592-2.095 2.53-3.026 6.122-3.552 6.83-.544.73-.928.202-1.075-.018-.145-.22-.867-2.02-1.003-2.332-1.275-2.95-2.9-4.822-3.387-5.375-2.624-2.968-5.026-4.254-5.993-4.827-1.84-1.092-6.04-2.27-6.667-2.424-1.35-.327-3.927-1.127-4.627-1.347-3.335-1.038-5.794-2.552-5.866-2.606-.075-.054-.22-.09-.292.02-.072.11-.147.582-.182.893-.037.31-.18 1.382-.22 2.148-.29 5.85.466 8.5.675 9.456 1.332 6.066 3.84 9.326 4.135 9.747 3.554 5.063 8.82 6.785 9.892 7.123 5.21 1.64 12.952 1.608 13.573 1.62 8.343.146 12.65-1.276 13.388-1.475 4.774-1.293 8.183-4.297 8.47-4.553 2.827-2.514 4.165-5.493 4.428-6.03 1.914-3.9 2.42-7.725 2.57-8.56.856-4.718.035-9.546 0-9.89"/></defs><use xlink:href="#a" overflow="visible" fill="#FFF"/></svg>