<svg xmlns="http://www.w3.org/2000/svg" width="150" height="100" viewBox="0 0 150 100"><path fill-rule="evenodd" clip-rule="evenodd" fill="#FFF" d="M24.58 28.684C15.47 39.384 6.73 52.657 6.643 62.577c-.034 3.732 1.157 6.99 4.016 9.46 4.114 3.552 8.645 4.806 13.155 4.813 6.59.01 13.135-2.65 18.26-4.7 8.63-3.45 104.02-44.876 104.02-44.876.92-.46.75-1.036-.402-.748-.464.116-103.85 28.134-103.85 28.134-1.994.56-4.033.85-6.016.86-7.946.048-15.016-4.362-14.958-13.656.022-3.637 1.135-8.02 3.715-13.18z"/></svg>